<?xml version="1.0" standalone="no"?>
<!DOCTYPE svg PUBLIC "-//W3C//DTD SVG 20010904//EN"
 "http://www.w3.org/TR/2001/REC-SVG-20010904/DTD/svg10.dtd">
<svg version="1.0" xmlns="http://www.w3.org/2000/svg"
 width="256.000000pt" height="256.000000pt" viewBox="0 0 256.000000 256.000000"
 preserveAspectRatio="xMidYMid meet">
<metadata>
Created by potrace 1.14, written by Peter Selinger 2001-2017
</metadata>
<g transform="translate(0.000000,256.000000) scale(0.100000,-0.100000)"
fill="#000000" stroke="none">
<path d="M0 1280 l0 -1280 1280 0 1280 0 0 1280 0 1280 -1280 0 -1280 0 0
-1280z m693 993 c175 -110 389 -508 391 -725 1 -67 -2 -79 -22 -101 -37 -39
-67 -42 -130 -11 -60 30 -170 132 -220 205 -113 167 -186 407 -168 551 14 106
65 134 149 81z m1306 7 c68 -36 57 -218 -25 -430 -48 -126 -67 -162 -127 -244
-50 -68 -142 -153 -197 -181 -30 -16 -77 -19 -105 -9 -56 22 -60 150 -10 301
67 200 152 350 264 466 91 95 151 124 200 97z m-1824 -117 c85 -321 206 -568
379 -775 30 -37 106 -108 168 -159 101 -82 117 -100 154 -168 74 -139 181
-273 245 -306 l26 -14 -7 42 c-5 23 -11 87 -15 142 l-7 100 184 -3 c215 -3
195 12 197 -154 1 -96 3 -108 18 -108 33 0 139 127 211 253 56 96 82 130 120
160 149 113 365 403 450 602 53 125 115 324 128 410 l8 50 8 -35 c13 -60 10
-359 -6 -505 -29 -267 -61 -399 -144 -605 -73 -181 -235 -450 -360 -598 -54
-64 -205 -183 -282 -222 -132 -67 -284 -91 -443 -71 -156 19 -371 124 -494
242 -200 192 -271 303 -382 603 -124 333 -188 629 -192 886 -3 215 0 300 10
300 4 0 16 -30 26 -67z"/>
</g>
</svg>
